<svg width="19" height="83" viewBox="0 0 19 83" fill="none" xmlns="http://www.w3.org/2000/svg">
<path fill-rule="evenodd" clip-rule="evenodd" d="M17.4167 79.8077C16.5422 79.8077 15.8333 80.5223 15.8333 81.4038C15.8333 82.2854 16.5422 83 17.4167 83C18.2911 83 19 82.2854 19 81.4038C19 80.5223 18.2911 79.8077 17.4167 79.8077ZM17.4167 63.8462C16.5422 63.8462 15.8333 64.5608 15.8333 65.4423C15.8333 66.3238 16.5422 67.0385 17.4167 67.0385C18.2911 67.0385 19 66.3238 19 65.4423C19 64.5608 18.2911 63.8462 17.4167 63.8462ZM15.8333 49.4808C15.8333 48.5992 16.5422 47.8846 17.4167 47.8846C18.2911 47.8846 19 48.5992 19 49.4808C19 50.3623 18.2911 51.0769 17.4167 51.0769C16.5422 51.0769 15.8333 50.3623 15.8333 49.4808ZM17.4167 31.9231C16.5422 31.9231 15.8333 32.6377 15.8333 33.5192C15.8333 34.4008 16.5422 35.1154 17.4167 35.1154C18.2911 35.1154 19 34.4008 19 33.5192C19 32.6377 18.2911 31.9231 17.4167 31.9231ZM15.8333 17.5577C15.8333 16.6762 16.5422 15.9615 17.4167 15.9615C18.2911 15.9615 19 16.6762 19 17.5577C19 18.4392 18.2911 19.1538 17.4167 19.1538C16.5422 19.1538 15.8333 18.4392 15.8333 17.5577ZM17.4167 1.07288e-06C16.5422 1.07288e-06 15.8333 0.714627 15.8333 1.59615C15.8333 2.47769 16.5422 3.19231 17.4167 3.19231C18.2911 3.19231 19 2.47769 19 1.59615C19 0.714627 18.2911 1.07288e-06 17.4167 1.07288e-06ZM2.38419e-07 81.4038C2.38419e-07 80.5223 0.708882 79.8077 1.58333 79.8077C2.45778 79.8077 3.16667 80.5223 3.16667 81.4038C3.16667 82.2854 2.45778 83 1.58333 83C0.708882 83 2.38419e-07 82.2854 2.38419e-07 81.4038ZM1.58333 63.8462C0.708882 63.8462 2.38419e-07 64.5608 2.38419e-07 65.4423C2.38419e-07 66.3238 0.708882 67.0385 1.58333 67.0385C2.45778 67.0385 3.16667 66.3238 3.16667 65.4423C3.16667 64.5608 2.45778 63.8462 1.58333 63.8462ZM2.38419e-07 49.4808C2.38419e-07 48.5992 0.708882 47.8846 1.58333 47.8846C2.45778 47.8846 3.16667 48.5992 3.16667 49.4808C3.16667 50.3623 2.45778 51.0769 1.58333 51.0769C0.708882 51.0769 2.38419e-07 50.3623 2.38419e-07 49.4808ZM1.58333 31.9231C0.708882 31.9231 2.38419e-07 32.6377 2.38419e-07 33.5192C2.38419e-07 34.4008 0.708882 35.1154 1.58333 35.1154C2.45778 35.1154 3.16667 34.4008 3.16667 33.5192C3.16667 32.6377 2.45778 31.9231 1.58333 31.9231ZM2.38419e-07 17.5577C2.38419e-07 16.6762 0.708882 15.9615 1.58333 15.9615C2.45778 15.9615 3.16667 16.6762 3.16667 17.5577C3.16667 18.4392 2.45778 19.1538 1.58333 19.1538C0.708882 19.1538 2.38419e-07 18.4392 2.38419e-07 17.5577ZM1.58333 1.07288e-06C0.708882 1.07288e-06 2.38419e-07 0.714627 2.38419e-07 1.59615C2.38419e-07 2.47769 0.708882 3.19231 1.58333 3.19231C2.45778 3.19231 3.16667 2.47769 3.16667 1.59615C3.16667 0.714627 2.45778 1.07288e-06 1.58333 1.07288e-06Z" fill="white"/>
</svg>
