<svg width="83" height="19" viewBox="0 0 83 19" fill="none" xmlns="http://www.w3.org/2000/svg">
<path fill-rule="evenodd" clip-rule="evenodd" d="M3.19231 17.4167C3.19231 16.5422 2.47769 15.8333 1.59615 15.8333C0.714623 15.8333 1.07433e-07 16.5422 6.92097e-08 17.4167C3.09862e-08 18.2911 0.714622 19 1.59615 19C2.47769 19 3.19231 18.2911 3.19231 17.4167ZM19.1538 17.4167C19.1538 16.5422 18.4392 15.8333 17.5577 15.8333C16.6762 15.8333 15.9615 16.5422 15.9615 17.4167C15.9615 18.2911 16.6762 19 17.5577 19C18.4392 19 19.1538 18.2911 19.1538 17.4167ZM33.5192 15.8333C34.4008 15.8333 35.1154 16.5422 35.1154 17.4167C35.1154 18.2911 34.4008 19 33.5192 19C32.6377 19 31.9231 18.2911 31.9231 17.4167C31.9231 16.5422 32.6377 15.8333 33.5192 15.8333ZM51.0769 17.4167C51.0769 16.5422 50.3623 15.8333 49.4808 15.8333C48.5992 15.8333 47.8846 16.5422 47.8846 17.4167C47.8846 18.2911 48.5992 19 49.4808 19C50.3623 19 51.0769 18.2911 51.0769 17.4167ZM65.4423 15.8333C66.3238 15.8333 67.0385 16.5422 67.0385 17.4167C67.0385 18.2911 66.3238 19 65.4423 19C64.5608 19 63.8462 18.2911 63.8462 17.4167C63.8462 16.5422 64.5608 15.8333 65.4423 15.8333ZM83 17.4167C83 16.5422 82.2854 15.8333 81.4038 15.8333C80.5223 15.8333 79.8077 16.5422 79.8077 17.4167C79.8077 18.2911 80.5223 19 81.4038 19C82.2854 19 83 18.2911 83 17.4167ZM1.59615 3.08189e-07C2.47769 3.46722e-07 3.19231 0.708882 3.19231 1.58333C3.19231 2.45778 2.47769 3.16667 1.59615 3.16667C0.714623 3.16667 7.23083e-07 2.45778 7.61307e-07 1.58333C7.9953e-07 0.708882 0.714623 2.69656e-07 1.59615 3.08189e-07ZM19.1538 1.58333C19.1538 0.708883 18.4392 1.04442e-06 17.5577 1.00589e-06C16.6762 9.67357e-07 15.9615 0.708883 15.9615 1.58333C15.9615 2.45779 16.6762 3.16667 17.5577 3.16667C18.4392 3.16667 19.1538 2.45779 19.1538 1.58333ZM33.5192 1.70359e-06C34.4008 1.74212e-06 35.1154 0.708884 35.1154 1.58334C35.1154 2.45779 34.4008 3.16667 33.5192 3.16667C32.6377 3.16667 31.9231 2.45779 31.9231 1.58333C31.9231 0.708884 32.6377 1.66506e-06 33.5192 1.70359e-06ZM51.0769 1.58334C51.0769 0.708885 50.3623 2.43982e-06 49.4808 2.40129e-06C48.5992 2.36276e-06 47.8846 0.708884 47.8846 1.58334C47.8846 2.45779 48.5992 3.16667 49.4808 3.16667C50.3623 3.16667 51.0769 2.45779 51.0769 1.58334ZM65.4423 3.09899e-06C66.3238 3.13753e-06 67.0385 0.708885 67.0385 1.58334C67.0385 2.45779 66.3238 3.16667 65.4423 3.16667C64.5608 3.16667 63.8462 2.45779 63.8462 1.58334C63.8462 0.708885 64.5608 3.06046e-06 65.4423 3.09899e-06ZM83 1.58334C83 0.708886 82.2854 3.83523e-06 81.4038 3.79669e-06C80.5223 3.75816e-06 79.8077 0.708886 79.8077 1.58334C79.8077 2.45779 80.5223 3.16667 81.4038 3.16667C82.2854 3.16667 83 2.45779 83 1.58334Z" fill="white"/>
</svg>
